#!OML:ASF H:\Terrain\Patient Classification 1\Walking\steve\steve.ASF
:FULLY-SPECIFIED
:DEGREES
91
root 6.89847 13.8521 -14.1218 14.3163 5.11943 2.59128
lowerback 8.08397 -3.75531 1.94809
upperback -2.90499 -4.41992 5.46033
thorax -7.31904 -2.11714 5.3164
lowerneck -11.7465 2.47212 3.98217
upperneck 7.80706 3.4653 -7.48192
head 4.4597 1.38365 -2.70847
rclavicle 1.55052e-014 -3.33958e-014
rhumerus -57.9474 -16.9931 -47.0517
rradius 19.1287
rwrist 9.25908
rhand -16.1981 -30.5291
rfingers 7.12502
rthumb 10.009 -60.2711
lclavicle 1.55052e-014 -3.33958e-014
lhumerus 14.7291 -8.40193 72.2644
lradius 56.1829
lwrist 36.4146
lhand -21.2414 -12.4878
lfingers 7.12502
lthumb 5.14122 17.4298
rfemur -64.4388 1.25612 21.8577
rtibia 74.4856
rfoot -24.457 4.89824
rtoes -1.86437
lfemur 7.22024 -0.0737205 -24.7025
ltibia 47.4586
lfoot 5.41687 2.45623
ltoes -18.3878
92
root 6.89932 13.9393 -13.8816 14.1629 5.05388 2.71727
lowerback 8.0258 -3.58989 1.84389
upperback -2.91692 -4.21691 5.39619
thorax -7.30945 -2.0144 5.27394
lowerneck -11.1348 2.3448 3.88013
upperneck 7.61478 3.30966 -7.44601
head 4.28823 1.32166 -2.69599
rclavicle -2.82274e-014 4.77083e-015
rhumerus -55.2661 -16.899 -49.917
rradius 19.1841
rwrist 8.9165
rhand -16.1345 -30.6175
rfingers 7.12502
rthumb 10.0704 -60.3566
lclavicle -2.82274e-014 4.77083e-015
lhumerus 12.0894 -8.66288 73.9037
lradius 55.0567
lwrist 36.0853
lhand -21.0179 -12.2086
lfingers 7.12502
lthumb 5.35708 17.7037
rfemur -62.7977 1.40302 21.7494
rtibia 73.9408
rfoot -25.406 4.95671
rtoes -1.70867
lfemur 4.90957 0.112812 -24.9511
ltibia 50.1954
lfoot 3.25677 2.11002
ltoes -18.2966
93
root 6.90185 14.0286 -13.6477 13.9914 5.01892 2.79893
lowerback 7.9468 -3.43103 1.8759
upperback -2.9692 -4.00699 5.32057
thorax -7.34233 -1.91379 5.14341
lowerneck -11.4835 2.18943 2.78279
upperneck 8.54128 3.22069 -6.54294
head 4.59151 1.27532 -2.24169
rclavicle -1.19271e-014 -3.02153e-014
rhumerus -52.7179 -16.8711 -52.3838
rradius 19.2729
rwrist 8.80033
rhand -15.9495 -30.831
rfingers 7.12502
rthumb 10.2488 -60.5613
lclavicle -1.19271e-014 -3.02153e-014
lhumerus 9.12639 -8.80346 75.6218
lradius 53.9565
lwrist 35.3877
lhand -20.5492 -12.4834
lfingers 7.12502
lthumb 5.80958 17.4169
rfemur -61.0839 1.5203 21.7027
rtibia 73.296
rfoot -26.3418 5.07951
rtoes -2.17272
lfemur 2.6714 0.312835 -25.161
ltibia 52.7731
lfoot 0.799001 1.89353
ltoes -18.0785
94
root 6.9062 14.1268 -13.4165 13.8795 5.01077 2.39944
lowerback 7.77816 -3.2758 2.47432
upperback -3.03577 -3.73991 5.28742
thorax -7.3773 -1.81028 4.72745
lowerneck -10.5304 2.1688 3.43733
upperneck 8.10072 3.16416 -7.29194
head 4.31878 1.24999 -2.59076
rclavicle 1.98785e-014 3.97569e-014
rhumerus -50.2479 -16.6862 -54.9325
rradius 19.4308
rwrist 8.48624
rhand -16.5934 -29.8736
rfingers 7.12502
rthumb 9.62766 -59.6336
lclavicle 1.98785e-014 3.97569e-014
lhumerus 6.16753 -8.89162 77.1586
lradius 52.7576
lwrist 34.5348
lhand -20.4638 -12.4211
lfingers 7.12502
lthumb 5.89203 17.477
rfemur -59.3077 1.79694 22.1647
rtibia 72.4522
rfoot -27.2239 5.10602
rtoes -2.497
lfemur 0.365593 0.60036 -24.8593
ltibia 55.19
lfoot -1.84554 1.13413
ltoes -17.287
95
root 6.90961 14.2234 -13.1874 13.6734 4.85547 2.16735
lowerback 7.83686 -3.07138 2.78815
upperback -3.10132 -3.4301 5.19603
thorax -7.52456 -1.67305 4.42037
lowerneck -9.79615 2.07876 3.76812
upperneck 7.99777 3.0353 -7.5949
head 4.16793 1.19667 -2.752
rclavicle 2.10712e-014 1.90833e-014
rhumerus -48.0625 -16.293 -57.559
rradius 20.1921
rwrist 7.94288
rhand -17.2125 -29.172
rfingers 7.12502
rthumb 9.03034 -58.9587
lclavicle 2.10712e-014 1.90833e-014
lhumerus 3.42467 -8.90229 78.6835
lradius 50.9782
lwrist 33.4934
lhand -21.3024 -12.4432
lfingers 7.12502
lthumb 5.08236 17.4759
rfemur -57.4355 2.10326 22.4269
rtibia 71.5305
rfoot -27.8286 5.35563
rtoes -1.57183
lfemur -1.95702 0.974936 -24.7688
ltibia 57.4619
lfoot -4.02625 0.31975
ltoes -16.407
96
root 6.91049 14.3219 -12.9505 13.3629 4.65204 2.15672
lowerback 7.76431 -2.8761 2.66076
upperback -2.95122 -3.19949 5.13168
thorax -7.32881 -1.55812 4.3759
lowerneck -9.92985 1.93983 3.34539
upperneck 8.60984 2.90043 -7.21697
head 4.35706 1.12547 -2.57552
rclavicle 5.00937e-014 -2.70347e-014
rhumerus -45.5977 -15.1986 -60.5467
rradius 21.4072
rwrist 6.14969
rhand -17.2693 -30.2825
rfingers 7.12502
rthumb 8.97548 -60.0715
lclavicle 5.00937e-014 -2.70347e-014
lhumerus 1.16769 -8.37627 80.23
lradius 48.8081
lwrist 31.9375
lhand -22.3835 -12.7662
lfingers 7.12502
lthumb 4.03843 17.1753
rfemur -55.4577 2.31252 22.4988
rtibia 70.561
rfoot -28.3398 5.51467
rtoes -1.50616
lfemur -4.22564 1.36274 -24.8834
ltibia 59.5468
lfoot -5.70469 0.267211
ltoes -18.0251
97
root 6.90986 14.4214 -12.7114 13.0797 4.57966 1.94282
lowerback 7.37846 -2.71331 2.70109
upperback -2.63906 -3.0171 5.1329
thorax -6.78379 -1.47668 4.28492
lowerneck -10.5831 1.83437 2.84283
upperneck 9.47578 2.80448 -6.63402
head 4.71066 1.06941 -2.31787
rclavicle 1.51076e-014 -1.11319e-014
rhumerus -42.7703 -13.0161 -64.0308
rradius 22.5594
rwrist 2.44718
rhand -18.2802 -32.4135
rfingers 7.12502
rthumb 7.99986 -62.2421
lclavicle 1.51076e-014 -1.11319e-014
lhumerus -0.68419 -7.46568 81.5811
lradius 46.6659
lwrist 30.3585
lhand -22.9403 -12.8831
lfingers 7.12502
lthumb 3.50078 17.0679
rfemur -53.4496 2.51194 22.8153
rtibia 69.4848
rfoot -28.925 5.5625
rtoes -1.24459
lfemur -6.50795 1.60437 -24.7558
ltibia 61.4741
lfoot -7.61142 0.331253
ltoes -19.8521
98
root 6.90574 14.5148 -12.4774 12.7643 4.44137 1.74704
lowerback 7.24065 -2.45782 2.69627
upperback -2.58084 -2.68643 5.14437
thorax -6.65828 -1.31473 4.2453
lowerneck -11.0979 1.72126 1.96642
upperneck 10.7251 2.72839 -5.65701
head 5.15347 1.03314 -1.87577
rclavicle -3.57812e-015 -7.95139e-015
rhumerus -40.4604 -11.1134 -66.8168
rradius 23.3753
rwrist -0.376754
rhand -20.4171 -34.2589
rfingers 7.12502
rthumb 5.9371 -64.1557
lclavicle -3.57812e-015 -7.95139e-015
lhumerus -3.03429 -6.12334 83.1874
lradius 44.4481
lwrist 28.4599
lhand -22.9617 -13.441
lfingers 7.12502
lthumb 3.4801 16.5103
rfemur -51.4182 2.72415 23.1167
rtibia 68.3859
rfoot -29.4184 5.78291
rtoes -0.299825
lfemur -8.68738 1.87473 -24.6453
ltibia 63.2596
lfoot -9.52085 0.111395
ltoes -19.8247
99
root 6.89926 14.6039 -12.2457 12.3501 4.21515 1.51337
lowerback 7.41478 -2.12575 2.59014
upperback -2.75443 -2.22591 5.24761
thorax -6.95913 -1.0779 4.37499
lowerneck -10.0901 1.4504 1.82426
upperneck 10.7767 2.41539 -5.8413
head 4.98809 0.877577 -1.93852
rclavicle 2.06736e-014 -3.49861e-014
rhumerus -38.5766 -10.1097 -68.6491
rradius 24.0604
rwrist -1.53712
rhand -21.6041 -35.3462
rfingers 7.12502
rthumb 4.79106 -65.2721
lclavicle 2.06736e-014 -3.49861e-014
lhumerus -5.93422 -3.82424 85.0813
lradius 42.2336
lwrist 25.9969
lhand -22.2131 -14.1158
lfingers 7.12502
lthumb 4.20298 15.8225
rfemur -49.3247 2.86317 23.4969
rtibia 67.2371
rfoot -29.7054 5.96132
rtoes -0.942016
lfemur -10.7103 2.21441 -24.4845
ltibia 64.8207
lfoot -10.8103 0.135325
ltoes -19.7681
100
root 6.89306 14.7052 -12.0239 11.9577 4.46411 1.03783
lowerback 7.60964 -1.9763 2.7914
upperback -2.86032 -1.97387 5.42296
thorax -7.20114 -0.955733 4.43175
lowerneck -9.46997 1.22008 1.82857
upperneck 10.9989 2.12967 -5.94793
head 4.9416 0.737675 -1.99609
rclavicle -3.37934e-014 1.59028e-015
rhumerus -36.2894 -9.90148 -69.9407
rradius 24.0559
rwrist -2.38148
rhand -22.2347 -35.1675
rfingers 7.12502
rthumb 4.18217 -65.1062
lclavicle -3.37934e-014 1.59028e-015
lhumerus -8.22676 -3.07938 86.1639
lradius 39.6788
lwrist 25.3504
lhand -22.0709 -14.307
lfingers 7.12502
lthumb 4.34032 15.6285
rfemur -47.1676 2.6754 24.1235
rtibia 66.0081
rfoot -29.8795 6.16139
rtoes -2.03663
lfemur -12.9539 2.00703 -23.9977
ltibia 66.1425
lfoot -11.9623 0.1748
ltoes -19.3311
101
root 6.88756 14.8157 -11.801 11.6557 4.67497 0.580095
lowerback 7.5351 -1.80684 3.027
upperback -2.7504 -1.72708 5.50708
thorax -7.05933 -0.843913 4.34629
lowerneck -9.18272 1.03904 1.9556
upperneck 10.9818 1.87152 -5.98523
head 4.87836 0.619268 -2.04739
rclavicle -8.74653e-015 3.02153e-014
rhumerus -33.5534 -10.1435 -71.0485
rradius 23.4425
rwrist -2.99662
rhand -23.2701 -35.0082
rfingers 7.12502
rthumb 3.18227 -64.9642
lclavicle -8.74653e-015 3.02153e-014
lhumerus -10.037 -2.74308 86.8795
lradius 37.0384
lwrist 25.2229
lhand -22.914 -14.7418
lfingers 7.12502
lthumb 3.52617 15.2088
rfemur -44.9849 2.48315 24.7109
rtibia 64.7541
rfoot -30.1801 6.41526
rtoes -2.60552
lfemur -15.2264 1.68427 -23.5278
ltibia 67.1774
lfoot -13.4715 -0.291788
ltoes -17.2936
102
root 6.88633 14.9107 -11.557 11.3925 3.93226 0.172534
lowerback 7.14409 -1.31484 3.02386
upperback -2.5139 -1.11116 5.49225
thorax -6.61233 -0.544325 4.22349
lowerneck -9.03636 0.879663 2.25423
upperneck 10.9197 1.633 -6.15519
head 4.82765 0.507565 -2.16585
rclavicle -1.35174e-014 3.33958e-014
rhumerus -31.113 -9.28866 -72.6034
rradius 23.8285
rwrist -4.20077
rhand -23.7012 -36.3798
rfingers 7.12502
rthumb 2.76594 -66.3416
lclavicle -1.35174e-014 3.33958e-014
lhumerus -11.8732 -1.65874 87.42
lradius 34.5593
lwrist 25.255
lhand -23.2834 -15.1683
lfingers 7.12502
lthumb 3.16944 14.7879
rfemur -42.8901 2.83251 25.2581
rtibia 63.4363
rfoot -30.5129 6.78102
rtoes -1.96869
lfemur -17.0793 2.2579 -23.1848
ltibia 67.8345
lfoot -15.013 -0.791668
ltoes -16.2089
